<svg width="18" height="18" viewBox="0 0 18 18" fill="none" xmlns="http://www.w3.org/2000/svg">
<path d="M17.567 8.87078L9.44203 0.745781C9.19766 0.501406 8.80266 0.501406 8.55828 0.745781L0.433281 8.87078C0.188906 9.11516 0.188906 9.51016 0.433281 9.75453C0.677656 9.99891 1.07266 9.99891 1.31703 9.75453L9.00016 2.07141L14.0089 7.08016C14.0083 7.09578 14.0002 7.10953 14.0002 7.12516V16.5002H4.00016V10.2502C4.00016 9.90453 3.72016 9.62516 3.37516 9.62516C3.03016 9.62516 2.75016 9.90453 2.75016 10.2502V17.1252C2.75016 17.4708 3.03016 17.7502 3.37516 17.7502H14.6252C14.9708 17.7502 15.2502 17.4708 15.2502 17.1252V8.32141L16.6833 9.75453C16.8052 9.87641 16.9652 9.93766 17.1252 9.93766C17.2852 9.93766 17.4452 9.87641 17.567 9.75453C17.8114 9.51016 17.8114 9.11516 17.567 8.87078Z" fill="white"/>
</svg>
