<?xml version="1.0" encoding="UTF-8"?>
<svg version="1.1" xmlns="http://www.w3.org/2000/svg" width="251" height="76">
<path d="M0 0 C2.31 0 4.62 0 7 0 C6.125 7.75 6.125 7.75 5 10 C5.99 10 6.98 10 8 10 C8.66 6.7 9.32 3.4 10 0 C22.21 0 34.42 0 47 0 C46.67 1.98 46.34 3.96 46 6 C56.23 6 66.46 6 77 6 C76 17 76 17 75 20 C75.66 20 76.32 20 77 20 C77.07347656 18.98679687 77.07347656 18.98679687 77.1484375 17.953125 C77.22320312 17.06109375 77.29796875 16.1690625 77.375 15.25 C77.44460937 14.36828125 77.51421875 13.4865625 77.5859375 12.578125 C77.99850055 10.00933618 78.71160957 8.24158985 80 6 C81.98 6 83.96 6 86 6 C85.979375 5.195625 85.95875 4.39125 85.9375 3.5625 C86 1 86 1 87 0 C89.33297433 -0.04092937 91.66705225 -0.04241723 94 0 C93.67 1.98 93.34 3.96 93 6 C103.56 6 114.12 6 125 6 C125 7.65 125 9.3 125 11 C124.01 11.66 123.02 12.32 122 13 C122.99 13.99 122.99 13.99 124 15 C124.93044155 20.35003892 123.44808114 23.46226411 120.96875 28.2578125 C120.41638672 29.33434082 119.86402344 30.41086914 119.29492188 31.52001953 C118.86759766 32.33841309 118.44027344 33.15680664 118 34 C113.60343827 34.02465504 109.2069128 34.04283842 104.81030273 34.05493164 C103.31355082 34.05997121 101.81680384 34.06680287 100.32006836 34.07543945 C98.17300193 34.08752159 96.02600038 34.09323191 93.87890625 34.09765625 C91.93866577 34.10551147 91.93866577 34.10551147 89.95922852 34.11352539 C87 34 87 34 86 33 C84.18544948 32.87644178 82.36615373 32.82205557 80.54760742 32.79467773 C79.37675095 32.77473251 78.20589447 32.75478729 76.9995575 32.73423767 C75.71450821 32.71752518 74.42945892 32.70081268 73.10546875 32.68359375 C71.76149436 32.6629699 70.41752565 32.64197223 69.07356262 32.62062073 C66.23112459 32.5764918 63.38866449 32.53565423 60.54614258 32.49731445 C56.99317857 32.44932554 53.44033853 32.39548714 49.88749504 32.33934593 C31.59034629 32.05176509 13.29968274 31.93783193 -5 32 C-5.02285692 30.10503754 -5.03904691 28.20999403 -5.05249023 26.31494141 C-5.06223373 25.2596524 -5.07197723 24.2043634 -5.08201599 23.11709595 C-4.96605165 18.70976041 -4.12283019 14.63833453 -3.0625 10.375 C-2.88009766 9.58738281 -2.69769531 8.79976562 -2.50976562 7.98828125 C-1.1844308 2.36886161 -1.1844308 2.36886161 0 0 Z M16 5 C16 5.33 16 5.66 16 6 C17.65 6 19.3 6 21 6 C20.34 10.62 19.68 15.24 19 20 C19.66 20 20.32 20 21 20 C21.99 15.71 22.98 11.42 24 7 C25.19625 7.020625 26.3925 7.04125 27.625 7.0625 C31.18004869 7.06882571 34.50555624 6.69888875 38 6 C38 5.67 38 5.34 38 5 C30.74 5 23.48 5 16 5 Z M35 12 C34.67 14.64 34.34 17.28 34 20 C34.66 19.67 35.32 19.34 36 19 C36.40729228 16.67843403 36.74438677 14.3431213 37 12 C36.34 12 35.68 12 35 12 Z M50 12 C48.66416101 16.84241633 47.74671881 20.93437617 48 26 C49.98 26 51.96 26 54 26 C53.814375 25.175 53.62875 24.35 53.4375 23.5 C52.9225916 19.38073281 53.36507072 16.09176645 54 12 C52.68 12 51.36 12 50 12 Z M62 12 C60.52952664 15.91063224 60.52952664 15.91063224 60 20 C60.66 20 61.32 20 62 20 C62.33 17.36 62.66 14.72 63 12 C62.67 12 62.34 12 62 12 Z M105 12 C103.74335022 14.90600261 103 16.79604584 103 20 C107.29 20 111.58 20 116 20 C113.18490007 17.7226499 113.18490007 17.7226499 110 18 C110 16.02 110 14.04 110 12 C108.35 12 106.7 12 105 12 Z M4 16 C3.34 19.3 2.68 22.6 2 26 C2.99 26 3.98 26 5 26 C5.66 22.7 6.32 19.4 7 16 C6.01 16 5.02 16 4 16 Z " fill="#474948" transform="translate(18,10)"/>
<path d="M0 0 C2.31 0 4.62 0 7 0 C6.125 7.75 6.125 7.75 5 10 C5.99 10 6.98 10 8 10 C8.66 6.7 9.32 3.4 10 0 C22.21 0 34.42 0 47 0 C46.67 1.98 46.34 3.96 46 6 C46.71027344 6.04898437 47.42054687 6.09796875 48.15234375 6.1484375 C49.07144531 6.22320313 49.99054688 6.29796875 50.9375 6.375 C51.85402344 6.44460937 52.77054688 6.51421875 53.71484375 6.5859375 C54.46894531 6.72257812 55.22304687 6.85921875 56 7 C56.495 7.99 56.495 7.99 57 9 C57.66 8.34 58.32 7.68 59 7 C61.6015625 6.8046875 61.6015625 6.8046875 64.625 6.875 C65.62789063 6.89304687 66.63078125 6.91109375 67.6640625 6.9296875 C68.43492188 6.95289063 69.20578125 6.97609375 70 7 C69.6889315 9.06271639 69.37608484 11.12516466 69.0625 13.1875 C68.88847656 14.33605469 68.71445313 15.48460937 68.53515625 16.66796875 C68.08620687 19.46325212 67.57917838 22.22933586 67 25 C66.319375 24.835 65.63875 24.67 64.9375 24.5 C61.88048666 23.89512541 61.88048666 23.89512541 58.25 24 C57.1775 24 56.105 24 55 24 C54.67 23.67 54.34 23.34 54 23 C54.09002398 20.97591245 54.24641038 18.95455713 54.4375 16.9375 C54.53933594 15.83277344 54.64117187 14.72804688 54.74609375 13.58984375 C54.82988281 12.73519531 54.91367188 11.88054688 55 11 C53.02 11 51.04 11 49 11 C48.34 15.62 47.68 20.24 47 25 C45.35 25 43.7 25 42 25 C42 23.68 42 22.36 42 21 C41.34 21 40.68 21 40 21 C40 21.99 40 22.98 40 24 C36.04 24 32.08 24 28 24 C27.74817558 18.20803845 28.27321666 12.56407966 30 7 C30.66 6.67 31.32 6.34 32 6 C28.37 6 24.74 6 21 6 C21.04125 7.03125 21.0825 8.0625 21.125 9.125 C21.00424851 12.86829627 20.35127982 15.53734547 19 19 C18.34 19 17.68 19 17 19 C17 19.99 17 20.98 17 22 C18.65 22 20.3 22 22 22 C22.66 17.38 23.32 12.76 24 8 C25.65 7.67 27.3 7.34 29 7 C28.52925046 9.63419421 28.0525697 12.26703532 27.56640625 14.8984375 C27.2045267 16.88004002 26.85673898 18.86430204 26.52734375 20.8515625 C26.37394531 21.72554687 26.22054687 22.59953125 26.0625 23.5 C25.92972656 24.2940625 25.79695313 25.088125 25.66015625 25.90625 C24.85099062 28.47259779 24.14731172 29.37421097 22 31 C19.27270508 31.34057617 19.27270508 31.34057617 16.01953125 31.29296875 C14.85615234 31.28330078 13.69277344 31.27363281 12.49414062 31.26367188 C10.67172852 31.2259668 10.67172852 31.2259668 8.8125 31.1875 C7.58595703 31.17396484 6.35941406 31.16042969 5.09570312 31.14648438 C2.06336336 31.11108741 -0.96809996 31.0617076 -4 31 C-4 30.01 -4 29.02 -4 28 C3.92 27.67 11.84 27.34 20 27 C20 26.34 20 25.68 20 25 C15.38 25 10.76 25 6 25 C6.66 21.7 7.32 18.4 8 15 C6.02 15 4.04 15 2 15 C1.67 17.97 1.34 20.94 1 24 C-0.65 24.33 -2.3 24.66 -4 25 C-3.71505863 22.33246372 -3.42222725 19.66617278 -3.125 17 C-3.04636719 16.25621094 -2.96773437 15.51242188 -2.88671875 14.74609375 C-2.31465792 9.68555567 -1.32985265 4.91710223 0 0 Z M35 12 C34.67 14.64 34.34 17.28 34 20 C34.66 19.67 35.32 19.34 36 19 C36.40729228 16.67843403 36.74438677 14.3431213 37 12 C36.34 12 35.68 12 35 12 Z M62 12 C60.52952664 15.91063224 60.52952664 15.91063224 60 20 C60.66 20 61.32 20 62 20 C62.33 17.36 62.66 14.72 63 12 C62.67 12 62.34 12 62 12 Z " fill="#3E4241" transform="translate(18,10)"/>
<path d="M0 0 C1.134375 0.020625 2.26875 0.04125 3.4375 0.0625 C3.1075 2.0425 2.7775 4.0225 2.4375 6.0625 C8.7075 6.0625 14.9775 6.0625 21.4375 6.0625 C21.4375 6.3925 21.4375 6.7225 21.4375 7.0625 C20.40689453 7.08376953 20.40689453 7.08376953 19.35546875 7.10546875 C18.45441406 7.15316406 17.55335937 7.20085938 16.625 7.25 C15.73167969 7.28480469 14.83835937 7.31960937 13.91796875 7.35546875 C11.2632857 7.85559173 11.2632857 7.85559173 9.6875 10.21875 C8.32817183 13.31122159 7.7271419 16.03500667 7.25 19.375 C7.01216797 20.97794922 7.01216797 20.97794922 6.76953125 22.61328125 C6.65996094 23.42152344 6.55039063 24.22976562 6.4375 25.0625 C5.7775 24.7325 5.1175 24.4025 4.4375 24.0625 C4.57859986 21.95801062 4.72554175 19.8539123 4.875 17.75 C4.99681641 15.99236328 4.99681641 15.99236328 5.12109375 14.19921875 C5.4375 11.0625 5.4375 11.0625 6.4375 8.0625 C5.4475 8.0625 4.4575 8.0625 3.4375 8.0625 C2.7775 10.3725 2.1175 12.6825 1.4375 15.0625 C0.7775 15.0625 0.1175 15.0625 -0.5625 15.0625 C-0.42116501 13.29130197 -0.27426792 11.52054713 -0.125 9.75 C-0.00318359 8.27080078 -0.00318359 8.27080078 0.12109375 6.76171875 C0.4375 4.0625 0.4375 4.0625 1.4375 1.0625 C0.1175 1.0625 -1.2025 1.0625 -2.5625 1.0625 C-3.2225 4.3625 -3.8825 7.6625 -4.5625 11.0625 C-5.0575 9.0825 -5.0575 9.0825 -5.5625 7.0625 C-6.8825 7.3925 -8.2025 7.7225 -9.5625 8.0625 C-10.5525 12.3525 -11.5425 16.6425 -12.5625 21.0625 C-14.2125 21.3925 -15.8625 21.7225 -17.5625 22.0625 C-16.59894647 12.65247722 -16.59894647 12.65247722 -15.5625 8.0625 C-16.8825 8.0625 -18.2025 8.0625 -19.5625 8.0625 C-19.8925 13.3425 -20.2225 18.6225 -20.5625 24.0625 C-14.2925 24.3925 -8.0225 24.7225 -1.5625 25.0625 C-1.8925 27.7025 -2.2225 30.3425 -2.5625 33.0625 C-0.5825 33.5575 -0.5825 33.5575 1.4375 34.0625 C-0.22861905 34.105221 -1.89632885 34.10313832 -3.5625 34.0625 C-3.8925 33.7325 -4.2225 33.4025 -4.5625 33.0625 C-6.37705052 32.93894178 -8.19634627 32.88455557 -10.01489258 32.85717773 C-11.18574905 32.83723251 -12.35660553 32.81728729 -13.5629425 32.79673767 C-14.84799179 32.78002518 -16.13304108 32.76331268 -17.45703125 32.74609375 C-18.80100564 32.7254699 -20.14497435 32.70447223 -21.48893738 32.68312073 C-24.33137541 32.6389918 -27.17383551 32.59815423 -30.01635742 32.55981445 C-33.56932143 32.51182554 -37.12216147 32.45798714 -40.67500496 32.40184593 C-58.97215371 32.11426509 -77.26281726 32.00033193 -95.5625 32.0625 C-95.58964385 30.15112086 -95.608961 28.23962957 -95.625 26.328125 C-95.63660156 25.26368164 -95.64820312 24.19923828 -95.66015625 23.10253906 C-95.54108995 19.39600519 -94.82316245 16.52932174 -93.5625 13.0625 C-93.2325 13.0625 -92.9025 13.0625 -92.5625 13.0625 C-93.5625 21.63392857 -93.5625 21.63392857 -94.5625 25.0625 C-93.2425 24.7325 -91.9225 24.4025 -90.5625 24.0625 C-89.9025 21.0925 -89.2425 18.1225 -88.5625 15.0625 C-86.5825 15.0625 -84.6025 15.0625 -82.5625 15.0625 C-83.2225 18.3625 -83.8825 21.6625 -84.5625 25.0625 C-79.6125 24.7325 -74.6625 24.4025 -69.5625 24.0625 C-69.8925 25.3825 -70.2225 26.7025 -70.5625 28.0625 C-78.4825 28.0625 -86.4025 28.0625 -94.5625 28.0625 C-94.5625 29.0525 -94.5625 30.0425 -94.5625 31.0625 C-90.27028769 30.95303657 -85.9789851 30.82231105 -81.6875 30.6875 C-80.46417969 30.6565625 -79.24085937 30.625625 -77.98046875 30.59375 C-76.81386719 30.55507813 -75.64726563 30.51640625 -74.4453125 30.4765625 C-72.82713623 30.42943115 -72.82713623 30.42943115 -71.17626953 30.38134766 C-68.40488346 30.31573678 -68.40488346 30.31573678 -66.5625 28.0625 C-65.8239261 25.84592858 -65.8239261 25.84592858 -65.2734375 23.2734375 C-65.05429688 22.33242188 -64.83515625 21.39140625 -64.609375 20.421875 C-64.27679688 18.94460937 -64.27679688 18.94460937 -63.9375 17.4375 C-63.70804688 16.44492187 -63.47859375 15.45234375 -63.2421875 14.4296875 C-62.67580652 11.97536994 -62.11620891 9.51970193 -61.5625 7.0625 C-62.8825 7.3925 -64.2025 7.7225 -65.5625 8.0625 C-65.69527344 8.90554687 -65.82804687 9.74859375 -65.96484375 10.6171875 C-66.14144531 11.71289062 -66.31804687 12.80859375 -66.5 13.9375 C-66.76103516 15.57332031 -66.76103516 15.57332031 -67.02734375 17.2421875 C-67.5625 20.0625 -67.5625 20.0625 -68.5625 22.0625 C-70.2125 22.0625 -71.8625 22.0625 -73.5625 22.0625 C-73.5625 21.0725 -73.5625 20.0825 -73.5625 19.0625 C-72.2425 19.3925 -70.9225 19.7225 -69.5625 20.0625 C-69.51351562 19.47082031 -69.46453125 18.87914063 -69.4140625 18.26953125 C-68.99793133 13.87145528 -68.51284405 10.09321103 -66.5625 6.0625 C-64.5825 6.0625 -62.6025 6.0625 -60.5625 6.0625 C-59.04696908 10.03700493 -60.06361377 13.26731149 -61 17.3125 C-61.43119141 19.20742188 -61.43119141 19.20742188 -61.87109375 21.140625 C-62.09925781 22.10484375 -62.32742187 23.0690625 -62.5625 24.0625 C-61.64017578 23.93681641 -61.64017578 23.93681641 -60.69921875 23.80859375 C-59.89097656 23.70675781 -59.08273438 23.60492188 -58.25 23.5 C-57.44949219 23.39558594 -56.64898437 23.29117188 -55.82421875 23.18359375 C-53.5625 23.0625 -53.5625 23.0625 -50.5625 24.0625 C-50.5625 23.0725 -50.5625 22.0825 -50.5625 21.0625 C-49.9025 21.0625 -49.2425 21.0625 -48.5625 21.0625 C-48.5625 22.3825 -48.5625 23.7025 -48.5625 25.0625 C-46.9125 25.0625 -45.2625 25.0625 -43.5625 25.0625 C-43.60375 24.051875 -43.645 23.04125 -43.6875 22 C-43.55676157 17.88173948 -42.82999214 14.94419467 -41.5625 11.0625 C-39.5825 11.0625 -37.6025 11.0625 -35.5625 11.0625 C-35.5625 15.0225 -35.5625 18.9825 -35.5625 23.0625 C-33.609375 22.99739583 -31.65625 22.93229167 -29.703125 22.8671875 C-27.26094025 23.09001458 -25.67613229 23.85335 -23.5625 25.0625 C-23.48902344 24.11890625 -23.48902344 24.11890625 -23.4140625 23.15625 C-22.92814801 17.59336686 -22.05696374 12.44256948 -20.5625 7.0625 C-22.33405654 7.17679397 -24.10476229 7.30433037 -25.875 7.4375 C-27.35419922 7.54191406 -27.35419922 7.54191406 -28.86328125 7.6484375 C-31.77778433 7.90115472 -31.77778433 7.90115472 -34.5625 10.0625 C-34.5625 9.0725 -34.5625 8.0825 -34.5625 7.0625 C-38.1925 7.0625 -41.8225 7.0625 -45.5625 7.0625 C-45.5625 6.7325 -45.5625 6.4025 -45.5625 6.0625 C-35.0025 6.0625 -24.4425 6.0625 -13.5625 6.0625 C-14.5625 17.0625 -14.5625 17.0625 -15.5625 20.0625 C-14.9025 20.0625 -14.2425 20.0625 -13.5625 20.0625 C-13.48902344 19.04929687 -13.48902344 19.04929687 -13.4140625 18.015625 C-13.33929688 17.12359375 -13.26453125 16.2315625 -13.1875 15.3125 C-13.11789063 14.43078125 -13.04828125 13.5490625 -12.9765625 12.640625 C-12.56399945 10.07183618 -11.85089043 8.30408985 -10.5625 6.0625 C-8.5825 6.0625 -6.6025 6.0625 -4.5625 6.0625 C-4.583125 5.258125 -4.60375 4.45375 -4.625 3.625 C-4.52750049 -0.37247981 -4.13731851 0.07258454 0 0 Z M-40.5625 12.0625 C-41.89833899 16.90491633 -42.81578119 20.99687617 -42.5625 26.0625 C-40.5825 26.0625 -38.6025 26.0625 -36.5625 26.0625 C-36.748125 25.2375 -36.93375 24.4125 -37.125 23.5625 C-37.6399084 19.44323281 -37.19742928 16.15426645 -36.5625 12.0625 C-37.8825 12.0625 -39.2025 12.0625 -40.5625 12.0625 Z M-86.5625 16.0625 C-87.2225 19.3625 -87.8825 22.6625 -88.5625 26.0625 C-87.5725 26.0625 -86.5825 26.0625 -85.5625 26.0625 C-84.9025 22.7625 -84.2425 19.4625 -83.5625 16.0625 C-84.5525 16.0625 -85.5425 16.0625 -86.5625 16.0625 Z " fill="#3F4443" transform="translate(108.5625,9.9375)"/>
<path d="M0 0 C1.134375 0.020625 2.26875 0.04125 3.4375 0.0625 C3.1075 2.0425 2.7775 4.0225 2.4375 6.0625 C8.7075 6.0625 14.9775 6.0625 21.4375 6.0625 C21.4375 6.3925 21.4375 6.7225 21.4375 7.0625 C20.40689453 7.08376953 20.40689453 7.08376953 19.35546875 7.10546875 C18.45441406 7.15316406 17.55335937 7.20085938 16.625 7.25 C15.73167969 7.28480469 14.83835937 7.31960937 13.91796875 7.35546875 C11.2632857 7.85559173 11.2632857 7.85559173 9.6875 10.21875 C8.32817183 13.31122159 7.7271419 16.03500667 7.25 19.375 C7.01216797 20.97794922 7.01216797 20.97794922 6.76953125 22.61328125 C6.65996094 23.42152344 6.55039063 24.22976562 6.4375 25.0625 C5.7775 24.7325 5.1175 24.4025 4.4375 24.0625 C4.57859986 21.95801062 4.72554175 19.8539123 4.875 17.75 C4.95621094 16.57824219 5.03742188 15.40648437 5.12109375 14.19921875 C5.4375 11.0625 5.4375 11.0625 6.4375 8.0625 C5.4475 8.0625 4.4575 8.0625 3.4375 8.0625 C2.7775 10.3725 2.1175 12.6825 1.4375 15.0625 C0.7775 15.0625 0.1175 15.0625 -0.5625 15.0625 C-0.42116501 13.29130197 -0.27426792 11.52054713 -0.125 9.75 C-0.04378906 8.76386719 0.03742188 7.77773438 0.12109375 6.76171875 C0.4375 4.0625 0.4375 4.0625 1.4375 1.0625 C0.1175 1.0625 -1.2025 1.0625 -2.5625 1.0625 C-3.2225 4.3625 -3.8825 7.6625 -4.5625 11.0625 C-5.0575 9.0825 -5.0575 9.0825 -5.5625 7.0625 C-6.8825 7.3925 -8.2025 7.7225 -9.5625 8.0625 C-10.5525 12.3525 -11.5425 16.6425 -12.5625 21.0625 C-14.2125 21.3925 -15.8625 21.7225 -17.5625 22.0625 C-16.59894647 12.65247722 -16.59894647 12.65247722 -15.5625 8.0625 C-16.8825 8.0625 -18.2025 8.0625 -19.5625 8.0625 C-19.8925 13.3425 -20.2225 18.6225 -20.5625 24.0625 C-14.2925 24.3925 -8.0225 24.7225 -1.5625 25.0625 C-1.8925 25.7225 -2.2225 26.3825 -2.5625 27.0625 C-19.0625 27.0625 -35.5625 27.0625 -52.5625 27.0625 C-51.5725 26.7325 -50.5825 26.4025 -49.5625 26.0625 C-49.5625 24.4125 -49.5625 22.7625 -49.5625 21.0625 C-49.2325 22.3825 -48.9025 23.7025 -48.5625 25.0625 C-46.9125 25.0625 -45.2625 25.0625 -43.5625 25.0625 C-43.60375 24.051875 -43.645 23.04125 -43.6875 22 C-43.55676157 17.88173948 -42.82999214 14.94419467 -41.5625 11.0625 C-39.5825 11.0625 -37.6025 11.0625 -35.5625 11.0625 C-35.5625 15.0225 -35.5625 18.9825 -35.5625 23.0625 C-33.609375 22.99739583 -31.65625 22.93229167 -29.703125 22.8671875 C-27.26094025 23.09001458 -25.67613229 23.85335 -23.5625 25.0625 C-23.51351562 24.4334375 -23.46453125 23.804375 -23.4140625 23.15625 C-22.92814801 17.59336686 -22.05696374 12.44256948 -20.5625 7.0625 C-22.33405654 7.17679397 -24.10476229 7.30433037 -25.875 7.4375 C-27.35419922 7.54191406 -27.35419922 7.54191406 -28.86328125 7.6484375 C-31.77778433 7.90115472 -31.77778433 7.90115472 -34.5625 10.0625 C-34.5625 9.0725 -34.5625 8.0825 -34.5625 7.0625 C-38.1925 7.0625 -41.8225 7.0625 -45.5625 7.0625 C-45.5625 6.7325 -45.5625 6.4025 -45.5625 6.0625 C-35.0025 6.0625 -24.4425 6.0625 -13.5625 6.0625 C-14.5625 17.0625 -14.5625 17.0625 -15.5625 20.0625 C-14.9025 20.0625 -14.2425 20.0625 -13.5625 20.0625 C-13.51351562 19.38703125 -13.46453125 18.7115625 -13.4140625 18.015625 C-13.33929688 17.12359375 -13.26453125 16.2315625 -13.1875 15.3125 C-13.11789063 14.43078125 -13.04828125 13.5490625 -12.9765625 12.640625 C-12.56399945 10.07183618 -11.85089043 8.30408985 -10.5625 6.0625 C-8.5825 6.0625 -6.6025 6.0625 -4.5625 6.0625 C-4.583125 5.258125 -4.60375 4.45375 -4.625 3.625 C-4.52750049 -0.37247981 -4.13731851 0.07258454 0 0 Z M-40.5625 12.0625 C-41.89833899 16.90491633 -42.81578119 20.99687617 -42.5625 26.0625 C-40.5825 26.0625 -38.6025 26.0625 -36.5625 26.0625 C-36.748125 25.2375 -36.93375 24.4125 -37.125 23.5625 C-37.6399084 19.44323281 -37.19742928 16.15426645 -36.5625 12.0625 C-37.8825 12.0625 -39.2025 12.0625 -40.5625 12.0625 Z " fill="#2D2F2F" transform="translate(108.5625,9.9375)"/>
<path d="M0 0 C1.32 0 2.64 0 4 0 C3.67 3.63 3.34 7.26 3 11 C4.65 11 6.3 11 8 11 C8.66 7.37 9.32 3.74 10 0 C19.24 0 28.48 0 38 0 C38 0.99 38 1.98 38 3 C30.08 3.33 22.16 3.66 14 4 C12.68 10.27 11.36 16.54 10 23 C8.68 23 7.36 23 6 23 C6.495 18.545 6.495 18.545 7 14 C5.02 14 3.04 14 1 14 C0.67 16.97 0.34 19.94 0 23 C-1.65 23.33 -3.3 23.66 -5 24 C-4.5694611 19.95293435 -3.8662237 16.40125538 -2.5 12.5625 C-1.01746719 8.35355318 -0.40347179 4.43818972 0 0 Z " fill="#DEDFDF" transform="translate(19,11)"/>
<path d="M0 0 C1.09054688 0.02320313 2.18109375 0.04640625 3.3046875 0.0703125 C4.40039062 0.08835937 5.49609375 0.10640625 6.625 0.125 C7.46804687 0.14820313 8.31109375 0.17140625 9.1796875 0.1953125 C9.3671875 2.5703125 9.3671875 2.5703125 9.1796875 5.1953125 C8.1896875 5.8553125 7.1996875 6.5153125 6.1796875 7.1953125 C6.8396875 7.8553125 7.4996875 8.5153125 8.1796875 9.1953125 C9.45389118 16.52198364 5.59231362 21.86773489 2.1796875 28.1953125 C-3.7603125 28.1953125 -9.7003125 28.1953125 -15.8203125 28.1953125 C-15.8203125 27.8653125 -15.8203125 27.5353125 -15.8203125 27.1953125 C-13.1803125 27.1953125 -10.5403125 27.1953125 -7.8203125 27.1953125 C-7.8203125 26.5353125 -7.8203125 25.8753125 -7.8203125 25.1953125 C-8.4803125 24.8653125 -9.1403125 24.5353125 -9.8203125 24.1953125 C-9.4903125 23.2053125 -9.1603125 22.2153125 -8.8203125 21.1953125 C-11.4603125 20.8653125 -14.1003125 20.5353125 -16.8203125 20.1953125 C-16.8203125 19.8653125 -16.8203125 19.5353125 -16.8203125 19.1953125 C-16.23016357 19.19120361 -15.64001465 19.18709473 -15.03198242 19.18286133 C-12.35624234 19.14995102 -9.68278775 19.07931629 -7.0078125 19.0078125 C-5.6146582 18.99911133 -5.6146582 18.99911133 -4.19335938 18.99023438 C-1.64106306 18.90730778 0.6925125 18.77772145 3.1796875 18.1953125 C5.47272921 15.96260256 5.47272921 15.96260256 6.1796875 13.1953125 C5.97325551 10.94202838 5.97325551 10.94202838 5.1796875 9.1953125 C2.2096875 8.7003125 2.2096875 8.7003125 -0.8203125 8.1953125 C-0.4903125 6.8753125 -0.1603125 5.5553125 0.1796875 4.1953125 C2.8196875 4.1953125 5.4596875 4.1953125 8.1796875 4.1953125 C8.1796875 3.2053125 8.1796875 2.2153125 8.1796875 1.1953125 C6.55387784 1.30929915 4.92901593 1.43686909 3.3046875 1.5703125 C2.39976562 1.63992187 1.49484375 1.70953125 0.5625 1.78125 C-1.99973153 1.99099382 -1.99973153 1.99099382 -3.8203125 4.1953125 C-3.98712359 7.27879076 -3.98712359 7.27879076 -3.8203125 10.1953125 C-0.8503125 10.6903125 -0.8503125 10.6903125 2.1796875 11.1953125 C1.8496875 12.8453125 1.5196875 14.4953125 1.1796875 16.1953125 C-4.1003125 16.1953125 -9.3803125 16.1953125 -14.8203125 16.1953125 C-13.48417805 6.84237132 -13.48417805 6.84237132 -11.8203125 4.1953125 C-8.3203125 3.0078125 -8.3203125 3.0078125 -4.8203125 2.1953125 C-2.8203125 0.1953125 -2.8203125 0.1953125 0 0 Z M-10.8203125 6.1953125 C-12.07696228 9.10131511 -12.8203125 10.99135834 -12.8203125 14.1953125 C-8.5303125 14.1953125 -4.2403125 14.1953125 0.1796875 14.1953125 C-2.63541243 11.9179624 -2.63541243 11.9179624 -5.8203125 12.1953125 C-5.8203125 10.2153125 -5.8203125 8.2353125 -5.8203125 6.1953125 C-7.4703125 6.1953125 -9.1203125 6.1953125 -10.8203125 6.1953125 Z " fill="#404342" transform="translate(133.8203125,15.8046875)"/>
<path d="M0 0 C1.37478516 0.01740234 1.37478516 0.01740234 2.77734375 0.03515625 C3.69644531 0.04417969 4.61554688 0.05320312 5.5625 0.0625 C6.27277344 0.07410156 6.98304688 0.08570312 7.71484375 0.09765625 C5.71484375 3.09765625 5.71484375 3.09765625 2.58984375 3.78515625 C1.64109375 3.88828125 0.69234375 3.99140625 -0.28515625 4.09765625 C-1.27515625 7.72765625 -2.26515625 11.35765625 -3.28515625 15.09765625 C4.63484375 14.60265625 4.63484375 14.60265625 12.71484375 14.09765625 C13.04484375 12.77765625 13.37484375 11.45765625 13.71484375 10.09765625 C12.26078125 10.12859375 12.26078125 10.12859375 10.77734375 10.16015625 C7.71484375 10.09765625 7.71484375 10.09765625 6.71484375 9.09765625 C6.25019985 3.7542514 6.25019985 3.7542514 7.90625 1.4140625 C10.34141867 -0.35840368 11.92421584 -0.20587471 14.90234375 -0.08984375 C15.80339844 -0.06277344 16.70445312 -0.03570313 17.6328125 -0.0078125 C18.66341797 0.04439453 18.66341797 0.04439453 19.71484375 0.09765625 C19.71484375 1.08765625 19.71484375 2.07765625 19.71484375 3.09765625 C17.07484375 3.42765625 14.43484375 3.75765625 11.71484375 4.09765625 C11.38484375 5.08765625 11.05484375 6.07765625 10.71484375 7.09765625 C12.13796875 7.03578125 12.13796875 7.03578125 13.58984375 6.97265625 C16.71484375 7.09765625 16.71484375 7.09765625 18.71484375 9.09765625 C18.521394 12.12836903 18.31085446 14.31046143 16.45141602 16.76635742 C14.21247837 18.48278185 12.91813184 18.47125251 10.1171875 18.4609375 C9.23353516 18.46029297 8.34988281 18.45964844 7.43945312 18.45898438 C6.51970703 18.44287109 5.59996094 18.42675781 4.65234375 18.41015625 C3.26692383 18.41499023 3.26692383 18.41499023 1.85351562 18.41992188 C-5.01810452 18.36470798 -5.01810452 18.36470798 -7.28515625 16.09765625 C-7.490551 10.57155945 -6.72655848 5.54280079 -3.28515625 1.09765625 C-2.28515625 0.09765625 -2.28515625 0.09765625 0 0 Z " fill="#D2D3D3" transform="translate(122.28515625,16.90234375)"/>
<path d="M0 0 C1.32 0 2.64 0 4 0 C3.69052329 1.93798521 3.37731166 3.87537426 3.0625 5.8125 C2.80146484 7.43091797 2.80146484 7.43091797 2.53515625 9.08203125 C2 12 2 12 1 15 C2.65 15 4.3 15 6 15 C6.66 10.38 7.32 5.76 8 1 C9.65 0.67 11.3 0.34 13 0 C12.52925046 2.63419421 12.0525697 5.26703532 11.56640625 7.8984375 C11.2045267 9.88004002 10.85673898 11.86430204 10.52734375 13.8515625 C10.37394531 14.72554687 10.22054687 15.59953125 10.0625 16.5 C9.92972656 17.2940625 9.79695313 18.088125 9.66015625 18.90625 C8.85099062 21.47259779 8.14731172 22.37421097 6 24 C3.27270508 24.34057617 3.27270508 24.34057617 0.01953125 24.29296875 C-1.14384766 24.28330078 -2.30722656 24.27363281 -3.50585938 24.26367188 C-5.32827148 24.2259668 -5.32827148 24.2259668 -7.1875 24.1875 C-8.41404297 24.17396484 -9.64058594 24.16042969 -10.90429688 24.14648438 C-13.93663664 24.11108741 -16.96809996 24.0617076 -20 24 C-20 23.01 -20 22.02 -20 21 C-12.08 20.67 -4.16 20.34 4 20 C4 19.34 4 18.68 4 18 C3.21625 18.04125 2.4325 18.0825 1.625 18.125 C-1 18 -1 18 -3 16 C-3.13367039 10.53065338 -1.64915223 5.16734366 0 0 Z " fill="#E2E2E2" transform="translate(34,17)"/>
<path d="M0 0 C1.32 0 2.64 0 4 0 C3.35731979 3.27146109 2.71031325 6.54205181 2.0625 9.8125 C1.88009766 10.74126953 1.69769531 11.67003906 1.50976562 12.62695312 C1.33251953 13.51962891 1.15527344 14.41230469 0.97265625 15.33203125 C0.81031494 16.15421143 0.64797363 16.9763916 0.48071289 17.82348633 C0 20 0 20 -1 23 C-4.96 23 -8.92 23 -13 23 C-13.36844295 17.22772713 -12.46863195 12.2769839 -10 7 C-7.04335481 5.5216774 -4.25770263 5.93967217 -1 6 C-0.67 4.02 -0.34 2.04 0 0 Z M-6 11 C-6.33 13.64 -6.66 16.28 -7 19 C-6.34 18.67 -5.68 18.34 -5 18 C-4.59270772 15.67843403 -4.25561323 13.3431213 -4 11 C-4.66 11 -5.32 11 -6 11 Z " fill="#E6E7E7" transform="translate(59,11)"/>
<path d="M0 0 C0.99773437 0.02320312 1.99546875 0.04640625 3.0234375 0.0703125 C4.52777344 0.09738281 4.52777344 0.09738281 6.0625 0.125 C6.83335938 0.14820312 7.60421875 0.17140625 8.3984375 0.1953125 C8.087369 2.25802889 7.77452234 4.32047716 7.4609375 6.3828125 C7.28691406 7.53136719 7.11289063 8.67992187 6.93359375 9.86328125 C6.48464437 12.65856462 5.97761588 15.42464836 5.3984375 18.1953125 C4.7178125 18.0303125 4.0371875 17.8653125 3.3359375 17.6953125 C0.27892416 17.09043791 0.27892416 17.09043791 -3.3515625 17.1953125 C-4.4240625 17.1953125 -5.4965625 17.1953125 -6.6015625 17.1953125 C-6.9315625 16.8653125 -7.2615625 16.5353125 -7.6015625 16.1953125 C-6.26896338 0.4706429 -6.26896338 0.4706429 0 0 Z M0.3984375 5.1953125 C-1.07203586 9.10594474 -1.07203586 9.10594474 -1.6015625 13.1953125 C-0.9415625 13.1953125 -0.2815625 13.1953125 0.3984375 13.1953125 C0.7284375 10.5553125 1.0584375 7.9153125 1.3984375 5.1953125 C1.0684375 5.1953125 0.7384375 5.1953125 0.3984375 5.1953125 Z " fill="#CDCECD" transform="translate(79.6015625,16.8046875)"/>
<path d="M0 0 C19.8 0 39.6 0 60 0 C60 0.99 60 1.98 60 3 C39.87 3 19.74 3 -1 3 C-0.67 2.01 -0.34 1.02 0 0 Z " fill="#DADBDB" transform="translate(44,38)"/>
<path d="M0 0 C1.134375 0.020625 2.26875 0.04125 3.4375 0.0625 C3.1075 2.0425 2.7775 4.0225 2.4375 6.0625 C8.7075 6.0625 14.9775 6.0625 21.4375 6.0625 C21.4375 6.3925 21.4375 6.7225 21.4375 7.0625 C20.40689453 7.08376953 20.40689453 7.08376953 19.35546875 7.10546875 C18.45441406 7.15316406 17.55335937 7.20085938 16.625 7.25 C15.28501953 7.30220703 15.28501953 7.30220703 13.91796875 7.35546875 C11.2632857 7.85559173 11.2632857 7.85559173 9.6875 10.21875 C8.32817183 13.31122159 7.7271419 16.03500667 7.25 19.375 C7.01216797 20.97794922 7.01216797 20.97794922 6.76953125 22.61328125 C6.60517578 23.82564453 6.60517578 23.82564453 6.4375 25.0625 C5.7775 24.7325 5.1175 24.4025 4.4375 24.0625 C4.57859986 21.95801062 4.72554175 19.8539123 4.875 17.75 C4.95621094 16.57824219 5.03742188 15.40648437 5.12109375 14.19921875 C5.4375 11.0625 5.4375 11.0625 6.4375 8.0625 C5.4475 8.0625 4.4575 8.0625 3.4375 8.0625 C2.7775 10.3725 2.1175 12.6825 1.4375 15.0625 C0.7775 15.0625 0.1175 15.0625 -0.5625 15.0625 C-0.42116501 13.29130197 -0.27426792 11.52054713 -0.125 9.75 C-0.04378906 8.76386719 0.03742188 7.77773438 0.12109375 6.76171875 C0.4375 4.0625 0.4375 4.0625 1.4375 1.0625 C0.1175 1.0625 -1.2025 1.0625 -2.5625 1.0625 C-3.2225 4.3625 -3.8825 7.6625 -4.5625 11.0625 C-4.8925 9.7425 -5.2225 8.4225 -5.5625 7.0625 C-6.8825 7.3925 -8.2025 7.7225 -9.5625 8.0625 C-10.5525 12.3525 -11.5425 16.6425 -12.5625 21.0625 C-14.2125 21.3925 -15.8625 21.7225 -17.5625 22.0625 C-16.59894647 12.65247722 -16.59894647 12.65247722 -15.5625 8.0625 C-16.5525 7.7325 -17.5425 7.4025 -18.5625 7.0625 C-17.2425 7.0625 -15.9225 7.0625 -14.5625 7.0625 C-14.53541433 8.66657328 -14.51606517 10.2707785 -14.5 11.875 C-14.48839844 12.76832031 -14.47679688 13.66164063 -14.46484375 14.58203125 C-14.5625 17.0625 -14.5625 17.0625 -15.5625 20.0625 C-14.9025 20.0625 -14.2425 20.0625 -13.5625 20.0625 C-13.51351562 19.38703125 -13.46453125 18.7115625 -13.4140625 18.015625 C-13.30191406 16.67757813 -13.30191406 16.67757813 -13.1875 15.3125 C-13.11789063 14.43078125 -13.04828125 13.5490625 -12.9765625 12.640625 C-12.56399945 10.07183618 -11.85089043 8.30408985 -10.5625 6.0625 C-8.5825 6.0625 -6.6025 6.0625 -4.5625 6.0625 C-4.583125 5.258125 -4.60375 4.45375 -4.625 3.625 C-4.52750049 -0.37247981 -4.13731851 0.07258454 0 0 Z " fill="#323636" transform="translate(108.5625,9.9375)"/>
<path d="M0 0 C0.33 0 0.66 0 1 0 C0 8.57142857 0 8.57142857 -1 12 C0.32 11.67 1.64 11.34 3 11 C3.66 8.03 4.32 5.06 5 2 C6.98 2 8.96 2 11 2 C10.34 5.3 9.68 8.6 9 12 C13.95 11.67 18.9 11.34 24 11 C23.67 12.32 23.34 13.64 23 15 C15.08 15 7.16 15 -1 15 C-1 15.99 -1 16.98 -1 18 C8.24 17.67 17.48 17.34 27 17 C26.67 17.66 26.34 18.32 26 19 C16.76 19 7.52 19 -2 19 C-2 5.5 -2 5.5 0 0 Z M7 3 C6.34 6.3 5.68 9.6 5 13 C5.99 13 6.98 13 8 13 C8.66 9.7 9.32 6.4 10 3 C9.01 3 8.02 3 7 3 Z " fill="#2F3433" transform="translate(15,23)"/>
<path d="M0 0 C1.32 0 2.64 0 4 0 C3.85795259 1.58367747 3.71119847 3.16693318 3.5625 4.75 C3.48128906 5.63171875 3.40007812 6.5134375 3.31640625 7.421875 C3.03761535 9.69350452 2.61209423 11.79851823 2 14 C3.32 13.67 4.64 13.34 6 13 C6.99 8.71 7.98 4.42 9 0 C10.32 0 11.64 0 13 0 C12.34 5.28 11.68 10.56 11 16 C6.71 16 2.42 16 -2 16 C-1.0625 4.88392857 -1.0625 4.88392857 0 0 Z " fill="#F0F1F1" transform="translate(89,18)"/>
<path d="M0 0 C1.25 1.5625 1.25 1.5625 2 4 C0.68 6.31 -0.64 8.62 -2 11 C-7.94 11 -13.88 11 -20 11 C-20 10.67 -20 10.34 -20 10 C-17.36 10 -14.72 10 -12 10 C-12 9.34 -12 8.68 -12 8 C-12.66 7.67 -13.32 7.34 -14 7 C-13.67 6.01 -13.34 5.02 -13 4 C-15.64 3.67 -18.28 3.34 -21 3 C-21 2.67 -21 2.34 -21 2 C-20.39937744 1.97494385 -19.79875488 1.9498877 -19.17993164 1.92407227 C-16.47388563 1.8084472 -13.76821717 1.68557064 -11.0625 1.5625 C-10.11697266 1.52318359 -9.17144531 1.48386719 -8.19726562 1.44335938 C-7.29814453 1.40146484 -6.39902344 1.35957031 -5.47265625 1.31640625 C-4.64000244 1.27974854 -3.80734863 1.24309082 -2.94946289 1.20532227 C-0.99661142 1.20632897 -0.99661142 1.20632897 0 0 Z " fill="#414342" transform="translate(138,33)"/>
<path d="M0 0 C1.37478516 0.01740234 1.37478516 0.01740234 2.77734375 0.03515625 C3.69644531 0.04417969 4.61554688 0.05320312 5.5625 0.0625 C6.27277344 0.07410156 6.98304688 0.08570312 7.71484375 0.09765625 C5.71484375 3.09765625 5.71484375 3.09765625 2.58984375 3.78515625 C1.64109375 3.88828125 0.69234375 3.99140625 -0.28515625 4.09765625 C-1.27515625 7.72765625 -2.26515625 11.35765625 -3.28515625 15.09765625 C2.32484375 15.09765625 7.93484375 15.09765625 13.71484375 15.09765625 C13.38484375 15.75765625 13.05484375 16.41765625 12.71484375 17.09765625 C9.56902952 17.12654139 6.42324906 17.14441548 3.27734375 17.16015625 C2.37951172 17.16853516 1.48167969 17.17691406 0.55664062 17.18554688 C-0.72436523 17.19038086 -0.72436523 17.19038086 -2.03125 17.1953125 C-2.82200928 17.20054932 -3.61276855 17.20578613 -4.42749023 17.21118164 C-6.28515625 17.09765625 -6.28515625 17.09765625 -7.28515625 16.09765625 C-7.24535557 10.72456477 -7.06823312 0.30206124 0 0 Z " fill="#F6F6F6" transform="translate(122.28515625,16.90234375)"/>
<path d="M0 0 C1.32 0 2.64 0 4 0 C2.94587139 7.91216535 1.5628356 15.43109219 -1 23 C-1.99 23 -2.98 23 -4 23 C-4.23136637 17.4978184 -3.4350346 12.86146222 -2 7.5625 C-1.80921875 6.83095703 -1.6184375 6.09941406 -1.421875 5.34570312 C-0.95549597 3.56180334 -0.47881722 1.78060155 0 0 Z " fill="#EBEBEB" transform="translate(106,11)"/>
<path d="M0 0 C0.33 0 0.66 0 1 0 C1 2.97 1 5.94 1 9 C2.32 8.67 3.64 8.34 5 8 C5.66 5.36 6.32 2.72 7 0 C7.99 0 8.98 0 10 0 C10.125 7.625 10.125 7.625 9 11 C5.04 11 1.08 11 -3 11 C-3 8.69 -3 6.38 -3 4 C-2.34 4 -1.68 4 -1 4 C-0.67 2.68 -0.34 1.36 0 0 Z " fill="#E7E8E8" transform="translate(49,23)"/>
<path d="M0 0 C0.33 0 0.66 0 1 0 C1 1.65 1 3.3 1 5 C2.32 5.33 3.64 5.66 5 6 C3.33388095 6.042721 1.66617115 6.04063832 0 6 C-0.495 5.505 -0.495 5.505 -1 5 C-2.93223995 4.87642922 -4.86893799 4.82205542 -6.80493164 4.79467773 C-8.04614273 4.77473251 -9.28735382 4.75478729 -10.56617737 4.73423767 C-11.9308357 4.71725207 -13.29549537 4.70037331 -14.66015625 4.68359375 C-16.04878875 4.66303064 -17.4374149 4.64203434 -18.82603455 4.62062073 C-22.48714059 4.56533353 -26.14830373 4.51595374 -29.80950928 4.46777344 C-33.54297997 4.41760679 -37.27636738 4.36189554 -41.00976562 4.30664062 C-48.3397733 4.19897782 -55.66985005 4.09755106 -63 4 C-63 3.67 -63 3.34 -63 3 C-32.31 2.505 -32.31 2.505 -1 2 C-0.67 1.34 -0.34 0.68 0 0 Z " fill="#282A2A" transform="translate(105,38)"/>
<path d="M0 0 C3.96 0 7.92 0 12 0 C11.01 0.33 10.02 0.66 9 1 C9.33 2.98 9.66 4.96 10 7 C8.54263913 7.19491452 7.08405407 7.38069358 5.625 7.5625 C4.81289062 7.66691406 4.00078125 7.77132812 3.1640625 7.87890625 C1 8 1 8 -1 7 C-0.67 4.69 -0.34 2.38 0 0 Z " fill="#606362" transform="translate(116,36)"/>
<path d="M0 0 C3.3 0 6.6 0 10 0 C10 0.66 10 1.32 10 2 C8.35 2.33 6.7 2.66 5 3 C3.68 7.29 2.36 11.58 1 16 C0.01 16 -0.98 16 -2 16 C-1.85764543 14.27054347 -1.71095618 12.54144346 -1.5625 10.8125 C-1.48128906 9.84957031 -1.40007813 8.88664062 -1.31640625 7.89453125 C-1.02333849 5.21350398 -0.57296246 2.6337014 0 0 Z " fill="#EBECEB" transform="translate(63,18)"/>
<path d="M0 0 C2.31 0 4.62 0 7 0 C6.125 7.75 6.125 7.75 5 10 C5.99 10 6.98 10 8 10 C8.66 6.7 9.32 3.4 10 0 C10.33 0 10.66 0 11 0 C10.85904936 1.6254308 10.71207913 3.25034051 10.5625 4.875 C10.48128906 5.77992187 10.40007813 6.68484375 10.31640625 7.6171875 C10 10 10 10 9 12 C7.35 12 5.7 12 4 12 C3.85714286 4.57142857 3.85714286 4.57142857 5 1 C3.68 1 2.36 1 1 1 C1.04125 2.2375 1.0825 3.475 1.125 4.75 C1.13658291 8.01637962 0.8568702 10.2146947 -1 13 C-1.33 13 -1.66 13 -2 13 C-1.85915204 11.20793453 -1.71216299 9.41635083 -1.5625 7.625 C-1.48128906 6.62726562 -1.40007813 5.62953125 -1.31640625 4.6015625 C-1 2 -1 2 0 0 Z " fill="#2D302D" transform="translate(18,10)"/>
<path d="M0 0 C0.66 0.99 1.32 1.98 2 3 C4.42521494 3.58189266 4.42521494 3.58189266 7.125 3.6875 C8.49011719 3.78611328 8.49011719 3.78611328 9.8828125 3.88671875 C10.58148438 3.92410156 11.28015625 3.96148438 12 4 C12 6.64 12 9.28 12 12 C11.67 10.68 11.34 9.36 11 8 C9.35 8 7.7 8 6 8 C6 7.67 6 7.34 6 7 C7.65 7 9.3 7 11 7 C11 6.34 11 5.68 11 5 C10.0925 5.185625 9.185 5.37125 8.25 5.5625 C5.24339146 5.96723576 3.8119538 5.82524731 1 5 C0.93941406 5.73605469 0.87882812 6.47210938 0.81640625 7.23046875 C0.69072266 8.69419922 0.69072266 8.69419922 0.5625 10.1875 C0.48128906 11.15042969 0.40007813 12.11335938 0.31640625 13.10546875 C0.02333849 15.78649602 -0.42703754 18.3662986 -1 21 C-0.01 21 0.98 21 2 21 C2.33 19.68 2.66 18.36 3 17 C3 18.65 3 20.3 3 22 C1.35 22 -0.3 22 -2 22 C-3.70245998 14.26154557 -1.88708057 7.59096818 0 0 Z " fill="#5D5F5E" transform="translate(62,13)"/>
<path d="M0 0 C9.24 0 18.48 0 28 0 C28 0.99 28 1.98 28 3 C24.06256167 3.05797565 20.12523281 3.09358789 16.1875 3.125 C15.06794922 3.14175781 13.94839844 3.15851562 12.79492188 3.17578125 C11.72177734 3.18222656 10.64863281 3.18867188 9.54296875 3.1953125 C8.0583313 3.21102295 8.0583313 3.21102295 6.54370117 3.22705078 C4 3 4 3 1 1 C0.67 1.99 0.34 2.98 0 4 C0 2.68 0 1.36 0 0 Z " fill="#D0D0D0" transform="translate(29,11)"/>
<path d="M0 0 C0.99 0 1.98 0 3 0 C2.68985608 2.08368538 2.3767948 4.16693668 2.0625 6.25 C1.88847656 7.41015625 1.71445313 8.5703125 1.53515625 9.765625 C1.1272264 12.23106961 0.66098697 14.59424562 0 17 C-1.32 17 -2.64 17 -4 17 C-3.66666667 14.66666667 -3.33333333 12.33333333 -3 10 C-2.855625 8.7625 -2.71125 7.525 -2.5625 6.25 C-2 3 -2 3 0 0 Z " fill="#E6E6E6" transform="translate(112,18)"/>
<path d="M0 0 C3.96 0 7.92 0 12 0 C12 1.65 12 3.3 12 5 C11.01 5.66 10.02 6.32 9 7 C9.66 7.66 10.32 8.32 11 9 C11.49004554 14.29249181 11.30745448 15.5900607 8 20 C8.33 16.7 8.66 13.4 9 10 C6.69 9.34 4.38 8.68 2 8 C2.33 6.68 2.66 5.36 3 4 C5.64 4 8.28 4 11 4 C11 3.01 11 2.02 11 1 C5.06 1.495 5.06 1.495 -1 2 C-0.67 1.34 -0.34 0.68 0 0 Z " fill="#292E2E" transform="translate(131,16)"/>
<path d="M0 0 C2.64 0 5.28 0 8 0 C7.67 2.31 7.34 4.62 7 7 C3.94736336 7.98120464 2.05263664 7.98120464 -1 7 C-0.67 4.69 -0.34 2.38 0 0 Z " fill="#A9ABAB" transform="translate(107,36)"/>
<path d="M0 0 C1.32 0 2.64 0 4 0 C5.59854133 5.9146029 4.25890714 11.15284453 3 17 C3.99 17.33 4.98 17.66 6 18 C0.39 18 -5.22 18 -11 18 C-11 17.67 -11 17.34 -11 17 C-2.96428571 15.79464286 -2.96428571 15.79464286 1 17 C1.06058594 16.18015625 1.12117188 15.3603125 1.18359375 14.515625 C1.26738281 13.43796875 1.35117188 12.3603125 1.4375 11.25 C1.51871094 10.18265625 1.59992188 9.1153125 1.68359375 8.015625 C1.94090773 5.56320038 2.31812218 3.36078709 3 1 C2.01 0.67 1.02 0.34 0 0 Z " fill="#646766" transform="translate(99,17)"/>
<path d="M0 0 C1.32 0 2.64 0 4 0 C3.34 5.28 2.68 10.56 2 16 C1.34 14.68 0.68 13.36 0 12 C-0.99 12.495 -0.99 12.495 -2 13 C-1.34 8.71 -0.68 4.42 0 0 Z " fill="#E1E2E2" transform="translate(98,18)"/>
<path d="M0 0 C3.3 0 6.6 0 10 0 C9.34 3.3 8.68 6.6 8 10 C7.01 10.33 6.02 10.66 5 11 C5 8.03 5 5.06 5 2 C3.35 1.67 1.7 1.34 0 1 C0 0.67 0 0.34 0 0 Z " fill="#F1F1F1" transform="translate(78,18)"/>
<path d="M0 0 C1.37478516 0.01740234 1.37478516 0.01740234 2.77734375 0.03515625 C3.69644531 0.04417969 4.61554688 0.05320312 5.5625 0.0625 C6.27277344 0.07410156 6.98304688 0.08570312 7.71484375 0.09765625 C6.72484375 1.58265625 6.72484375 1.58265625 5.71484375 3.09765625 C4.22984375 3.31421875 4.22984375 3.31421875 2.71484375 3.53515625 C1.72484375 3.72078125 0.73484375 3.90640625 -0.28515625 4.09765625 C-1.72153323 6.04928743 -1.72153323 6.04928743 -2.28515625 8.09765625 C-2.61515625 7.10765625 -2.94515625 6.11765625 -3.28515625 5.09765625 C-3.94515625 6.74765625 -4.60515625 8.39765625 -5.28515625 10.09765625 C-5.97265625 8.41015625 -5.97265625 8.41015625 -6.28515625 6.09765625 C-3.23618246 0.1382984 -3.23618246 0.1382984 0 0 Z " fill="#CDCECE" transform="translate(122.28515625,16.90234375)"/>
<path d="M0 0 C1.46908377 2.35270243 2.0503234 3.57047918 1.72265625 6.3671875 C1.50480469 7.19476563 1.28695312 8.02234375 1.0625 8.875 C0.12300493 12.92021445 -0.07571219 15.91229367 1 20 C-1.97 20 -4.94 20 -8 20 C-7.67 19.34 -7.34 18.68 -7 18 C-5.68 18.33 -4.36 18.66 -3 19 C-2.814375 17.081875 -2.814375 17.081875 -2.625 15.125 C-2.06428535 10.01355779 -1.08030341 5.02393526 0 0 Z " fill="#5C5E5D" transform="translate(32,15)"/>
<path d="M0 0 C1.65 0 3.3 0 5 0 C4.34 3.63 3.68 7.26 3 11 C1.35 11.33 -0.3 11.66 -2 12 C-1.85831863 10.56208484 -1.71148957 9.1246763 -1.5625 7.6875 C-1.48128906 6.88699219 -1.40007813 6.08648437 -1.31640625 5.26171875 C-1 3 -1 3 0 0 Z M1 2 C0.67 4.64 0.34 7.28 0 10 C0.66 9.67 1.32 9.34 2 9 C2.40729228 6.67843403 2.74438677 4.3431213 3 2 C2.34 2 1.68 2 1 2 Z " fill="#3F4241" transform="translate(52,20)"/>
<path d="M0 0 C0.99 0 1.98 0 3 0 C3 1.65 3 3.3 3 5 C4.32 5.33 5.64 5.66 7 6 C7 5.34 7 4.68 7 4 C6.34 4 5.68 4 5 4 C5.33 3.01 5.66 2.02 6 1 C6.66 1 7.32 1 8 1 C8 2.65 8 4.3 8 6 C8.66 6.33 9.32 6.66 10 7 C4.39 7 -1.22 7 -7 7 C-7 6.67 -7 6.34 -7 6 C-4.36 6 -1.72 6 1 6 C1 5.34 1 4.68 1 4 C0.34 3.67 -0.32 3.34 -1 3 C-0.67 2.01 -0.34 1.02 0 0 Z " fill="#323232" transform="translate(125,37)"/>
<path d="M0 0 C1.32 0 2.64 0 4 0 C4.02708567 1.60407328 4.04643483 3.2082785 4.0625 4.8125 C4.07410156 5.70582031 4.08570312 6.59914063 4.09765625 7.51953125 C4 10 4 10 3 13 C3.66 13 4.32 13 5 13 C5 11.35 5 9.7 5 8 C5.66 8 6.32 8 7 8 C6.67 9.98 6.34 11.96 6 14 C4.35 14.33 2.7 14.66 1 15 C1.96355353 5.58997722 1.96355353 5.58997722 3 1 C2.01 0.67 1.02 0.34 0 0 Z " fill="#4A4F4E" transform="translate(90,17)"/>
<path d="M0 0 C1.32 0 2.64 0 4 0 C3.67 2.64 3.34 5.28 3 8 C2.34 8 1.68 8 1 8 C1 9.32 1 10.64 1 12 C0.34 12 -0.32 12 -1 12 C-1.02712066 10.56260487 -1.04645067 9.12506137 -1.0625 7.6875 C-1.07410156 6.88699219 -1.08570312 6.08648437 -1.09765625 5.26171875 C-1 3 -1 3 0 0 Z " fill="#F9F9F9" transform="translate(106,11)"/>
<path d="M0 0 C1.32 0 2.64 0 4 0 C3.34 3.63 2.68 7.26 2 11 C1.34 10.01 0.68 9.02 0 8 C-0.66 8.66 -1.32 9.32 -2 10 C-1.85950482 8.52031676 -1.71245174 7.04125484 -1.5625 5.5625 C-1.48128906 4.73878906 -1.40007813 3.91507813 -1.31640625 3.06640625 C-1 1 -1 1 0 0 Z " fill="#E5E5E5" transform="translate(43,17)"/>
<path d="M0 0 C1.32 0 2.64 0 4 0 C3.34 3.96 2.68 7.92 2 12 C1.34 10.68 0.68 9.36 0 8 C-0.66 8.99 -1.32 9.98 -2 11 C-1.85892253 9.54119891 -1.71197585 8.08296449 -1.5625 6.625 C-1.48128906 5.81289063 -1.40007813 5.00078125 -1.31640625 4.1640625 C-1 2 -1 2 0 0 Z " fill="#E8E8E8" transform="translate(34,17)"/>
<path d="M0 0 C1.32 0 2.64 0 4 0 C3.85892253 1.45880109 3.71197585 2.91703551 3.5625 4.375 C3.48128906 5.18710937 3.40007812 5.99921875 3.31640625 6.8359375 C3 9 3 9 2 11 C0.68 11 -0.64 11 -2 11 C-1.85957123 9.35369672 -1.71250671 7.70795821 -1.5625 6.0625 C-1.48128906 5.14597656 -1.40007812 4.22945312 -1.31640625 3.28515625 C-1 1 -1 1 0 0 Z M1 2 C-0.47047336 5.91063224 -0.47047336 5.91063224 -1 10 C-0.34 10 0.32 10 1 10 C1.33 7.36 1.66 4.72 2 2 C1.67 2 1.34 2 1 2 Z " fill="#333736" transform="translate(79,20)"/>
<path d="M0 0 C0 2.97 0 5.94 0 9 C-1.65 9.33 -3.3 9.66 -5 10 C-4.38675022 3.49955237 -4.38675022 3.49955237 -2.5 1.0625 C-1 0 -1 0 0 0 Z " fill="#D7D7D6" transform="translate(19,25)"/>
<path d="M0 0 C2.97 0 5.94 0 9 0 C8.01 0.495 8.01 0.495 7 1 C6.34444881 3.52733235 6.34444881 3.52733235 6 6 C5.67 6 5.34 6 5 6 C5 4.35 5 2.7 5 1 C3.68 1 2.36 1 1 1 C1 2.32 1 3.64 1 5 C1.66 5 2.32 5 3 5 C3 5.66 3 6.32 3 7 C1.35 6.67 -0.3 6.34 -2 6 C-1.34 4.02 -0.68 2.04 0 0 Z " fill="#BDBEBE" transform="translate(129,36)"/>
<path d="M0 0 C2.31 0 4.62 0 7 0 C7 0.99 7 1.98 7 3 C6.34 3 5.68 3 5 3 C5 2.34 5 1.68 5 1 C3.68 1 2.36 1 1 1 C1.04125 2.2375 1.0825 3.475 1.125 4.75 C1.13658291 8.01637962 0.8568702 10.2146947 -1 13 C-1.33 13 -1.66 13 -2 13 C-1.85915204 11.20793453 -1.71216299 9.41635083 -1.5625 7.625 C-1.48128906 6.62726562 -1.40007813 5.62953125 -1.31640625 4.6015625 C-1 2 -1 2 0 0 Z " fill="#545A59" transform="translate(18,10)"/>
<path d="M0 0 C1.32 0 2.64 0 4 0 C3.50769231 6.4 3.50769231 6.4 0.9375 9.4375 C0.298125 9.953125 -0.34125 10.46875 -1 11 C-0.67 7.37 -0.34 3.74 0 0 Z " fill="#F0F1F0" transform="translate(19,11)"/>
<path d="M0 0 C0.33 0 0.66 0 1 0 C1.22786458 2.01822917 1.45572917 4.03645833 1.68359375 6.0546875 C1.91292961 8.07404316 1.91292961 8.07404316 3 10 C1.35 10 -0.3 10 -2 10 C-3.05236973 6.65155086 -3.20005388 5.40920111 -1.625 2.1875 C-1.08875 1.465625 -0.5525 0.74375 0 0 Z " fill="#F3F3F3" transform="translate(34,24)"/>
<path d="M0 0 C1.32 0 2.64 0 4 0 C3.67 3.3 3.34 6.6 3 10 C2.34 9.01 1.68 8.02 1 7 C0.34 7.66 -0.32 8.32 -1 9 C-0.67 6.03 -0.34 3.06 0 0 Z " fill="#E4E5E4" transform="translate(89,18)"/>
<path d="M0 0 C1.98 0 3.96 0 6 0 C6 1.65 6 3.3 6 5 C6.66 5 7.32 5 8 5 C8 6.65 8 8.3 8 10 C6.68 10 5.36 10 4 10 C4.33 7.03 4.66 4.06 5 1 C3.35 1 1.7 1 0 1 C0 0.67 0 0.34 0 0 Z " fill="#D1D2D1" transform="translate(21,24)"/>
<path d="M0 0 C0.33 0 0.66 0 1 0 C1 1.65 1 3.3 1 5 C-2.12180401 5.96661363 -4.52083795 5.98988909 -7.75 5.5625 C-8.94882812 5.40974609 -8.94882812 5.40974609 -10.171875 5.25390625 C-10.77515625 5.17011719 -11.3784375 5.08632813 -12 5 C-11.67 4.34 -11.34 3.68 -11 3 C-3.82105263 1.72631579 -3.82105263 1.72631579 0 3 C0 2.01 0 1.02 0 0 Z " fill="#525452" transform="translate(58,31)"/>
<path d="M0 0 C0.33 0 0.66 0 1 0 C1 2.31 1 4.62 1 7 C2.32 7 3.64 7 5 7 C5 7.66 5 8.32 5 9 C2.69 9 0.38 9 -2 9 C-1.125 1.125 -1.125 1.125 0 0 Z " fill="#F7F7F7" transform="translate(75,25)"/>
<path d="M0 0 C0.99773437 0.02320312 1.99546875 0.04640625 3.0234375 0.0703125 C4.52777344 0.09738281 4.52777344 0.09738281 6.0625 0.125 C6.83335938 0.14820312 7.60421875 0.17140625 8.3984375 0.1953125 C8.3984375 0.5253125 8.3984375 0.8553125 8.3984375 1.1953125 C3.9434375 1.6903125 3.9434375 1.6903125 -0.6015625 2.1953125 C-0.9315625 4.1753125 -1.2615625 6.1553125 -1.6015625 8.1953125 C-2.2615625 7.2053125 -2.9215625 6.2153125 -3.6015625 5.1953125 C-4.2615625 5.8553125 -4.9215625 6.5153125 -5.6015625 7.1953125 C-4.51902891 0.33926643 -4.51902891 0.33926643 0 0 Z " fill="#C3C4C4" transform="translate(79.6015625,16.8046875)"/>
<path d="M0 0 C0.33 0 0.66 0 1 0 C0.67 3.63 0.34 7.26 0 11 C-0.66 10.34 -1.32 9.68 -2 9 C-2.66 9.99 -3.32 10.98 -4 12 C-4.61528766 6.92387682 -2.61658349 4.17017994 0 0 Z " fill="#ECEDED" transform="translate(119,21)"/>
<path d="M0 0 C0.66 0.66 1.32 1.32 2 2 C1.9765625 4.1640625 1.9765625 4.1640625 1.625 6.625 C1.51414063 7.44226563 1.40328125 8.25953125 1.2890625 9.1015625 C1.19367187 9.72804688 1.09828125 10.35453125 1 11 C1.99 11 2.98 11 4 11 C4.33 9.68 4.66 8.36 5 7 C5 8.65 5 10.3 5 12 C3.35 12 1.7 12 0 12 C-1.28571429 3.42857143 -1.28571429 3.42857143 0 0 Z " fill="#757776" transform="translate(60,23)"/>
<path d="M0 0 C1.65 0 3.3 0 5 0 C4.67 1.98 4.34 3.96 4 6 C2.35 6 0.7 6 -1 6 C-0.67 4.02 -0.34 2.04 0 0 Z " fill="#CFCFCF" transform="translate(116,36)"/>
<path d="M0 0 C0 2.64 0 5.28 0 8 C-0.99 8 -1.98 8 -3 8 C-3 6.35 -3 4.7 -3 3 C-4.65 3 -6.3 3 -8 3 C-8 2.67 -8 2.34 -8 2 C-1.125 0 -1.125 0 0 0 Z " fill="#F7F7F7" transform="translate(30,21)"/>
<path d="M0 0 C0.66 0 1.32 0 2 0 C2.95024979 3.69541586 2.95024979 6.30458414 2 10 C1.34 8.68 0.68 7.36 0 6 C-0.66 6.99 -1.32 7.98 -2 9 C-1.125 2.25 -1.125 2.25 0 0 Z " fill="#DADBDA" transform="translate(49,18)"/>
<path d="M0 0 C4.62 0 9.24 0 14 0 C14 0.33 14 0.66 14 1 C10.37 1 6.74 1 3 1 C2.34 2.32 1.68 3.64 1 5 C0.34 5 -0.32 5 -1 5 C-0.67 3.35 -0.34 1.7 0 0 Z " fill="#F8F8F8" transform="translate(30,12)"/>
<path d="M0 0 C0.99 0 1.98 0 3 0 C2.67 3.3 2.34 6.6 2 10 C1.67 10 1.34 10 1 10 C0.67 8.35 0.34 6.7 0 5 C-0.66 5.66 -1.32 6.32 -2 7 C-1.125 2.25 -1.125 2.25 0 0 Z " fill="#DADBDB" transform="translate(112,18)"/>
<path d="M0 0 C0.33 0 0.66 0 1 0 C1 1.65 1 3.3 1 5 C1.66 5 2.32 5 3 5 C3.33 3.68 3.66 2.36 4 1 C3.67 3.97 3.34 6.94 3 10 C2.34 9.01 1.68 8.02 1 7 C0.34 7.66 -0.32 8.32 -1 9 C-0.67 6.03 -0.34 3.06 0 0 Z " fill="#CDCECE" transform="translate(104,18)"/>
<path d="M0 0 C2.97 0 5.94 0 9 0 C9 0.99 9 1.98 9 3 C6.03 3 3.06 3 0 3 C0 2.01 0 1.02 0 0 Z " fill="#474949" transform="translate(72,33)"/>
<path d="M0 0 C0.66 0 1.32 0 2 0 C1.67 1.98 1.34 3.96 1 6 C-0.65 6 -2.3 6 -4 6 C-4 5.01 -4 4.02 -4 3 C-2.68 3.33 -1.36 3.66 0 4 C0 2.68 0 1.36 0 0 Z " fill="#545554" transform="translate(39,26)"/>
<path d="M0 0 C1.32 0 2.64 0 4 0 C3.67 2.64 3.34 5.28 3 8 C2.34 6.68 1.68 5.36 1 4 C0.01 4.495 0.01 4.495 -1 5 C-0.67 3.35 -0.34 1.7 0 0 Z " fill="#DEDFDF" transform="translate(106,11)"/>
<path d="M0 0 C1.32 0 2.64 0 4 0 C3.67 2.31 3.34 4.62 3 7 C2.34 6.01 1.68 5.02 1 4 C0.34 4.66 -0.32 5.32 -1 6 C-0.67 4.02 -0.34 2.04 0 0 Z " fill="#DFE0E0" transform="translate(59,11)"/>
<path d="M0 0 C1.32 0 2.64 0 4 0 C3.67 2.31 3.34 4.62 3 7 C2.34 5.68 1.68 4.36 1 3 C0.34 3.66 -0.32 4.32 -1 5 C-0.67 3.35 -0.34 1.7 0 0 Z " fill="#BFC1C0" transform="translate(43,17)"/>
<path d="M0 0 C1.32 0 2.64 0 4 0 C3.67 2.31 3.34 4.62 3 7 C2.34 5.68 1.68 4.36 1 3 C0.34 3.99 -0.32 4.98 -1 6 C-0.67 4.02 -0.34 2.04 0 0 Z " fill="#C7C8C8" transform="translate(34,17)"/>
<path d="M0 0 C1.65 0 3.3 0 5 0 C4.01 0.33 3.02 0.66 2 1 C2.33 1.99 2.66 2.98 3 4 C2.34 4 1.68 4 1 4 C1 4.66 1 5.32 1 6 C0.34 6 -0.32 6 -1 6 C-0.67 4.02 -0.34 2.04 0 0 Z " fill="#C5C5C5" transform="translate(123,36)"/>
<path d="M0 0 C0.33 1.32 0.66 2.64 1 4 C2.32 4.33 3.64 4.66 5 5 C5 5.33 5 5.66 5 6 C3.02 6 1.04 6 -1 6 C-1.042721 4.33388095 -1.04063832 2.66617115 -1 1 C-0.67 0.67 -0.34 0.34 0 0 Z " fill="#F9F9F9" transform="translate(48,28)"/>
<path d="M0 0 C0.99 0.33 1.98 0.66 3 1 C2.67 2.98 2.34 4.96 2 7 C1.01 7.33 0.02 7.66 -1 8 C-0.67 5.36 -0.34 2.72 0 0 Z " fill="#4C5252" transform="translate(107,24)"/>
<path d="M0 0 C0.33 0 0.66 0 1 0 C1 1.98 1 3.96 1 6 C2.32 6.33 3.64 6.66 5 7 C2.69 6.67 0.38 6.34 -2 6 C-2 5.01 -2 4.02 -2 3 C-1.34 3 -0.68 3 0 3 C0 2.01 0 1.02 0 0 Z " fill="#383E3D" transform="translate(107,29)"/>
</svg>
