<svg width="48" height="48" viewBox="0 0 48 48" fill="none" xmlns="http://www.w3.org/2000/svg">
<g id="Frame">
<path id="Vector" fill-rule="evenodd" clip-rule="evenodd" d="M24 43.2001C29.0922 43.2001 33.9758 41.1772 37.5765 37.5765C41.1772 33.9758 43.2001 29.0922 43.2001 24C43.2001 18.9079 41.1772 14.0243 37.5765 10.4236C33.9758 6.8229 29.0922 4.80005 24 4.80005C18.9079 4.80005 14.0243 6.8229 10.4236 10.4236C6.8229 14.0243 4.80005 18.9079 4.80005 24C4.80005 29.0922 6.8229 33.9758 10.4236 37.5765C14.0243 41.1772 18.9079 43.2001 24 43.2001ZM26.4 16.8C26.4 16.1635 26.1472 15.5531 25.6971 15.103C25.247 14.6529 24.6366 14.4 24 14.4C23.3635 14.4 22.7531 14.6529 22.303 15.103C21.8529 15.5531 21.6 16.1635 21.6 16.8V21.6H16.8C16.1635 21.6 15.5531 21.8529 15.103 22.303C14.6529 22.7531 14.4 23.3635 14.4 24C14.4 24.6366 14.6529 25.247 15.103 25.6971C15.5531 26.1472 16.1635 26.4 16.8 26.4H21.6V31.2001C21.6 31.8366 21.8529 32.447 22.303 32.8971C22.7531 33.3472 23.3635 33.6 24 33.6C24.6366 33.6 25.247 33.3472 25.6971 32.8971C26.1472 32.447 26.4 31.8366 26.4 31.2001V26.4H31.2001C31.8366 26.4 32.447 26.1472 32.8971 25.6971C33.3472 25.247 33.6 24.6366 33.6 24C33.6 23.3635 33.3472 22.7531 32.8971 22.303C32.447 21.8529 31.8366 21.6 31.2001 21.6H26.4V16.8Z" fill="#0068FF"/>
</g>
</svg>
